<svg xmlns="http://www.w3.org/2000/svg" viewBox="0 0 409.35001 252.492" height="252.492" width="409.35"><path d="M191.103 55.286c0 17.17-13.917 31.095-31.084 31.095h-24.183c-17.173 0-31.104-13.924-31.104-31.094V31.093c0-17.17 13.93-31.092 31.104-31.092h24.182c17.166 0 31.083 13.923 31.083 31.093v24.193zM86.37 156.806c0 17.168-13.924 31.09-31.09 31.09H31.09c-17.165 0-31.09-13.922-31.09-31.09v-24.188c0-17.172 13.926-31.093 31.09-31.093h24.19c17.166 0 31.09 13.92 31.09 31.093v24.188zM86.37 55.286c0 17.17-13.924 31.095-31.084 31.095h-24.18C13.928 86.38 0 72.457 0 55.287v-24.19C0 13.924 13.93 0 31.106 0h24.18C72.446 0 86.37 13.922 86.37 31.097v24.19z" clip-rule="evenodd" fill="#fbb040" fill-rule="evenodd"/><path d="M193 152.79c0 6.918-.677 13.055-2.054 18.396-1.363 5.35-3.174 10.018-5.424 13.998-2.246 3.99-4.877 7.328-7.893 10.01-3.02 2.693-6.147 4.858-9.372 6.505-3.23 1.64-6.51 2.825-9.848 3.56-3.334.736-6.472 1.102-9.424 1.102-6.11 0-11.406-1-15.896-2.986-4.497-1.998-8.53-4.94-12.112-8.86h-.307v57.976h-15.94v-148.34h12.268l3.457 11.315h.312c.91-1.392 2.085-2.76 3.514-4.086 1.435-1.328 3.353-2.74 5.77-4.245 2.405-1.505 5.31-2.813 8.697-3.934 3.392-1.114 7.082-1.675 11.057-1.675 5.595 0 10.998.944 16.2 2.83 5.208 1.886 9.8 4.896 13.79 9.02 3.985 4.12 7.18 9.418 9.593 15.88 2.41 6.462 3.612 14.313 3.612 23.535m-16.982.212c0-5.803-.614-11.012-1.85-15.62-1.228-4.613-3.067-8.546-5.53-11.8-2.46-3.243-5.486-5.74-9.064-7.49-3.59-1.747-7.738-2.625-12.444-2.625-3.372 0-6.45.457-9.23 1.364-2.778.91-5.282 2.064-7.537 3.46-2.243 1.4-4.177 2.9-5.794 4.508-1.624 1.61-2.922 3.042-3.9 4.304v52.102c3.443 3.492 7.36 6.252 11.752 8.28 4.395 2.025 9.12 3.042 14.182 3.042 3.09 0 6.356-.577 9.803-1.73 3.443-1.16 6.63-3.218 9.542-6.182 2.916-2.975 5.325-7.012 7.22-12.115 1.898-5.1 2.848-11.6 2.848-19.498M200.376 153.398c0-6.923.678-13.058 2.043-18.4 1.36-5.347 3.16-10.01 5.397-13.998 2.232-3.982 4.848-7.32 7.865-10.01 3.004-2.69 6.11-4.873 9.328-6.556 3.214-1.675 6.48-2.885 9.8-3.614 3.32-.732 6.45-1.1 9.386-1.1 6.083 0 11.35 1.014 15.823 3.04 4.48 2.03 8.494 4.995 12.057 8.91h.318V50.133h16.253v151.805h-12.27l-3.355-11.11h-.42c-1.254 1.604-2.728 3.225-4.4 4.868-1.677 1.642-3.655 3.124-5.923 4.454-2.28 1.33-4.896 2.392-7.86 3.2-2.974.808-6.42 1.203-10.335 1.203-5.45 0-10.8-.924-16.03-2.773-5.247-1.853-9.915-4.818-14-8.912-4.087-4.086-7.393-9.362-9.91-15.83-2.52-6.468-3.77-14.35-3.77-23.64m16.98-.215c0 5.73.652 10.923 1.94 15.57 1.294 4.653 3.165 8.596 5.608 11.85 2.45 3.25 5.45 5.747 9.017 7.493 3.564 1.75 7.65 2.623 12.267 2.623 3.416 0 6.535-.46 9.326-1.37 2.803-.904 5.295-2.057 7.5-3.453 2.2-1.396 4.09-2.885 5.66-4.455 1.57-1.578 2.81-3.025 3.723-4.354v-52.1c-3.36-3.43-7.23-6.172-11.64-8.233-4.405-2.06-9.157-3.095-14.255-3.095-3.073 0-6.306.58-9.694 1.733-3.393 1.15-6.54 3.232-9.436 6.235-2.9 3.01-5.296 7.046-7.18 12.108-1.895 5.07-2.835 11.555-2.835 19.447" fill="#949ca1"/><path fill="#fbb040" d="M383.345 201.94h-20.24L315.3 148.89h-.208v53.05h-16.247V50.13h16.247v96.66h.208l46.96-44.448h21.184l-48.64 45.808"/><g fill="#949ca1"><path d="M395.005 192.468h-2.83v-1.022h6.89v1.022h-2.845v8.285h-1.215v-8.285zM407.943 196.666c-.07-1.298-.152-2.872-.152-4.02h-.026c-.332 1.078-.704 2.252-1.174 3.536l-1.644 4.516h-.91l-1.52-4.433c-.442-1.325-.802-2.513-1.064-3.618h-.027c-.027 1.16-.097 2.707-.18 4.115l-.248 3.99h-1.146l.65-9.307h1.532l1.59 4.502c.385 1.146.69 2.168.937 3.135h.026c.25-.94.58-1.96.995-3.135l1.657-4.502h1.533l.58 9.308h-1.188l-.22-4.087z"/></g></svg>
